<svg width="27" height="33" viewBox="0 0 27 33" fill="none" xmlns="http://www.w3.org/2000/svg">
<path fill-rule="evenodd" clip-rule="evenodd" d="M3.2461 13.6524V12.6411C3.2461 12.3654 3.4754 12.1355 3.75825 12.1355H23.0417C23.3257 12.1355 23.5538 12.3619 23.5538 12.6411V13.6524C21.7343 13.6527 20.1011 14.4472 18.9848 15.7068C17.8683 14.4469 16.2345 13.6524 14.4142 13.6524H12.3857C10.566 13.6524 8.93245 14.4468 7.81589 15.7064C6.69933 14.4468 5.06583 13.6524 3.2461 13.6524ZM25.5846 10.6185H1.21534C0.654555 10.6185 0.199951 10.1658 0.199951 9.60726V1.01129C0.199951 0.45277 0.654555 0 1.21534 0H5.78457C6.34535 0 6.79995 0.45277 6.79995 1.01129V4.04516H9.33841V1.01129C9.33841 0.45277 9.79302 0 10.3538 0H16.4461C17.0069 0 17.4615 0.45277 17.4615 1.01129V4.04516H20V1.01129C20 0.45277 20.4546 0 21.0153 0H25.5846C26.1453 0 26.6 0.45277 26.6 1.01129V9.60726C26.6 10.1658 26.1453 10.6185 25.5846 10.6185ZM18.9847 17.8819C20.0764 16.2469 21.9432 15.1694 24.0626 15.1694C24.6234 15.1694 25.078 15.6221 25.078 16.1806V31.35C25.078 31.9085 24.6234 32.3613 24.0626 32.3613H18.9846C18.4238 32.3613 17.9692 31.9085 17.9692 31.35V21.2371C17.9692 19.0024 16.1507 17.1919 13.9065 17.1919H12.8934C10.6497 17.1919 8.83072 19.0031 8.83072 21.2371V31.35C8.83072 31.9081 8.37686 32.3605 7.81672 32.3613H7.81645H2.73841C2.17763 32.3613 1.72303 31.9085 1.72303 31.35V16.1806C1.72303 15.6221 2.17763 15.1694 2.73841 15.1694C4.85755 15.1694 6.72415 16.2467 7.81589 17.8814C8.90764 16.2467 10.7742 15.1694 12.8934 15.1694H13.9065C16.0264 15.1694 17.8932 16.2468 18.9847 17.8819ZM20 27.2597L22.9304 24.9896C22.968 24.9605 23.0071 24.9344 23.0472 24.9113V22.4051L20 24.7657V27.2597ZM20 22.2033L22.9305 19.9332C22.9681 19.9041 23.0071 19.878 23.0472 19.8549V17.2931C23.0472 17.2931 22.6055 17.3956 22.0011 17.7507C20.8035 18.4543 20 19.7523 20 21.2371V22.2033ZM20 29.822V30.3387H23.0472V27.4615L20 29.822ZM3.7538 24.912C3.79355 24.9349 3.83221 24.9608 3.86949 24.9896L6.80107 27.2606V24.7664L3.7538 22.4059V24.912ZM3.7538 19.8555C3.79357 19.8785 3.83225 19.9043 3.86954 19.9332L6.80107 22.2041V21.2371C6.80107 19.3489 5.50159 17.7627 3.7538 17.317V19.8555ZM3.7538 27.4623V30.3387H6.80107V29.8229L3.7538 27.4623Z" fill="url(#paint0_linear_0_276)"/>
<defs>
<linearGradient id="paint0_linear_0_276" x1="-10.745" y1="14.7985" x2="18.777" y2="41.1316" gradientUnits="userSpaceOnUse">
<stop stop-color="#3142C6"/>
<stop offset="1" stop-color="#AF61D1"/>
</linearGradient>
</defs>
</svg>
